<svg width="92" height="49" viewBox="0 0 92 49" fill="none" xmlns="http://www.w3.org/2000/svg">
<path d="M6.33398 0.283203H18.6973C19.2441 0.302734 19.6934 0.507812 20.0449 0.898438C20.416 1.28906 20.6016 1.75781 20.6016 2.30469C20.5039 3.47656 19.8691 4.11133 18.6973 4.20898H7.33008C6.58789 4.24805 5.97266 4.53125 5.48438 5.05859C4.99609 5.58594 4.63477 6.19141 4.40039 6.875C4.18555 7.53906 4.07812 8.22266 4.07812 8.92578C4.07812 9.62891 4.18555 10.3223 4.40039 11.0059C4.63477 11.6699 4.99609 12.2656 5.48438 12.793C5.97266 13.3203 6.58789 13.6035 7.33008 13.6426H16.2363C16.5879 13.623 16.7734 13.4277 16.793 13.0566V11.3574C16.7734 10.9668 16.5879 10.7715 16.2363 10.7715H8.73633C8.18945 10.7715 7.7207 10.5859 7.33008 10.2148C6.95898 9.82422 6.77344 9.35547 6.77344 8.80859C6.77344 8.26172 6.95898 7.79297 7.33008 7.40234C7.7207 7.03125 8.18945 6.8457 8.73633 6.8457H18.7559C19.3027 6.8457 19.7715 7.03125 20.1621 7.40234C20.5137 7.77344 20.6992 8.22266 20.7188 8.75V8.80859V15.6641C20.6992 16.1914 20.5137 16.6309 20.1621 16.9824C19.791 17.3535 19.3418 17.5488 18.8145 17.5684H6.33398C4.9668 17.4902 3.83398 16.9727 2.93555 16.0156C2.05664 15.0391 1.42188 13.9355 1.03125 12.7051C0.660156 11.4746 0.474609 10.2148 0.474609 8.92578C0.474609 7.63672 0.669922 6.37695 1.06055 5.14648C1.45117 3.91602 2.08594 2.82227 2.96484 1.86523C3.84375 0.888672 4.9668 0.361328 6.33398 0.283203ZM40.7285 16.0156V8.95508C40.7285 8.4668 40.4746 8.21289 39.9668 8.19336H29.7129C29.3418 8.21289 29.0195 8.37891 28.7461 8.69141C28.4727 8.98438 28.2676 9.33594 28.1309 9.74609C28.0137 10.1367 27.9551 10.5371 27.9551 10.9473C27.9551 11.3379 28.0137 11.7383 28.1309 12.1484C28.2676 12.5391 28.4727 12.8906 28.7461 13.2031C29.0195 13.4961 29.3418 13.6426 29.7129 13.6426H37.2129C37.7598 13.6426 38.2188 13.8379 38.5898 14.2285C38.9805 14.5996 39.1758 15.0586 39.1758 15.6055C39.1758 16.1523 38.9805 16.6113 38.5898 16.9824C38.2188 17.373 37.7598 17.5684 37.2129 17.5684H29.8301C28.4629 17.5488 27.3301 17.168 26.4316 16.4258C25.5527 15.6641 24.918 14.8145 24.5273 13.877C24.1562 12.9199 23.9707 11.9336 23.9707 10.918C23.9707 9.94141 24.166 8.98438 24.5566 8.04688C24.9473 7.08984 25.582 6.24023 26.4609 5.49805C27.3398 4.73633 28.6387 4.32617 30.3574 4.26758H42.6621C43.209 4.26758 43.6777 4.45312 44.0684 4.82422C44.459 5.17578 44.6641 5.625 44.6836 6.17188V16.0156C44.6836 16.5625 44.4785 17.0215 44.0684 17.3926C43.6777 17.7441 43.209 17.9199 42.6621 17.9199C41.4902 17.8223 40.8457 17.1875 40.7285 16.0156ZM54.6738 3.82812C55.3574 3.82812 56.0215 3.94531 56.666 4.17969C57.3301 4.41406 57.9648 4.75586 58.5703 5.20508C58.668 5.30273 58.7754 5.40039 58.8926 5.49805C58.9902 5.40039 59.0977 5.30273 59.2148 5.20508C59.8203 4.75586 60.4453 4.41406 61.0898 4.17969C61.7539 3.94531 62.418 3.82812 63.082 3.82812C63.7656 3.82812 64.4297 3.94531 65.0742 4.17969C65.7383 4.41406 66.3633 4.76562 66.9492 5.23438C67.5547 5.68359 68.082 6.28906 68.5312 7.05078C69 7.8125 69.2344 8.7207 69.2344 9.77539V16.0156C69.1172 17.1875 68.4727 17.8223 67.3008 17.9199C66.7539 17.9199 66.2754 17.7441 65.8652 17.3926C65.4746 17.0215 65.2793 16.5625 65.2793 16.0156V10.0098C65.2793 9.54102 65.1914 9.15039 65.0156 8.83789C64.8398 8.50586 64.6445 8.25195 64.4297 8.07617C64.2148 7.88086 63.9902 7.74414 63.7559 7.66602C63.5215 7.56836 63.2871 7.51953 63.0527 7.51953C62.8184 7.51953 62.584 7.56836 62.3496 7.66602C62.1348 7.74414 61.9199 7.88086 61.7051 8.07617C61.4902 8.25195 61.2949 8.50586 61.1191 8.83789C60.9434 9.15039 60.8457 9.54102 60.8262 10.0098V16.0156C60.709 17.1875 60.0645 17.8223 58.8926 17.9199C58.3457 17.9199 57.8672 17.7441 57.457 17.3926C57.0664 17.0215 56.8711 16.5625 56.8711 16.0156V10.0098C56.8711 9.54102 56.7832 9.15039 56.6074 8.83789C56.4316 8.50586 56.2363 8.25195 56.0215 8.07617C55.8066 7.88086 55.582 7.74414 55.3477 7.66602C55.1133 7.56836 54.8789 7.51953 54.6445 7.51953C54.4102 7.51953 54.1758 7.56836 53.9414 7.66602C53.7266 7.74414 53.5117 7.88086 53.2969 8.07617C53.082 8.25195 52.8867 8.50586 52.7109 8.83789C52.5352 9.15039 52.4375 9.54102 52.418 10.0098V16.0156C52.3203 17.1875 51.6855 17.8223 50.5137 17.9199C49.9668 17.9199 49.4883 17.7441 49.0781 17.3926C48.6875 17.0215 48.4922 16.5625 48.4922 16.0156V9.77539C48.5312 8.7207 48.7754 7.8125 49.2246 7.05078C49.6738 6.28906 50.2012 5.68359 50.8066 5.23438C51.4121 4.76562 52.0371 4.41406 52.6816 4.17969C53.3457 3.94531 54.0098 3.82812 54.6738 3.82812ZM78.873 17.5684C77.1543 17.5098 75.8555 17.1094 74.9766 16.3672C74.0977 15.6055 73.4629 14.7559 73.0723 13.8184C72.6816 12.8613 72.4863 11.8945 72.4863 10.918C72.4863 9.90234 72.6719 8.92578 73.043 7.98828C73.4336 7.03125 74.0684 6.18164 74.9473 5.43945C75.8457 4.67773 76.9785 4.28711 78.3457 4.26758H89.4785C90.0254 4.26758 90.4844 4.45312 90.8555 4.82422C91.2461 5.17578 91.4414 5.60547 91.4414 6.11328C91.4414 6.64062 91.2461 7.08984 90.8555 7.46094C90.4844 7.8125 90.0254 7.98828 89.4785 7.98828H78.5215C78.0918 7.98828 77.7109 8.13477 77.3789 8.42773C77.0664 8.7207 76.832 9.10156 76.6758 9.57031C76.5391 10.0391 76.4707 10.498 76.4707 10.9473C76.4707 11.4355 76.5391 11.9141 76.6758 12.3828C76.832 12.8516 77.0664 13.2324 77.3789 13.5254C77.7109 13.7988 78.0918 13.9453 78.5215 13.9648H89.4785C90.0254 13.9648 90.4844 14.1406 90.8555 14.4922C91.2461 14.8438 91.4414 15.2637 91.4414 15.752C91.4414 16.2598 91.2461 16.6895 90.8555 17.041C90.4844 17.3926 90.0254 17.5684 89.4785 17.5684H78.873ZM91.0898 10.8594C91.0898 11.2305 90.9238 11.5527 90.5918 11.8262C90.2988 12.0801 89.9277 12.207 89.4785 12.207H79.8984C79.4492 12.207 79.0684 12.0801 78.7559 11.8262C78.4434 11.5527 78.2871 11.2305 78.2871 10.8594C78.2871 10.5078 78.4434 10.1953 78.7559 9.92188C79.0684 9.66797 79.4492 9.54102 79.8984 9.54102H89.4785C89.9277 9.54102 90.3086 9.67773 90.6211 9.95117C90.9336 10.2051 91.0898 10.5078 91.0898 10.8594ZM6.33398 30.2832H18.6973C19.2441 30.3027 19.6934 30.5078 20.0449 30.8984C20.416 31.2891 20.6016 31.7578 20.6016 32.3047C20.5039 33.4766 19.8691 34.1113 18.6973 34.209H7.33008C6.58789 34.248 5.97266 34.5312 5.48438 35.0586C4.99609 35.5859 4.63477 36.1914 4.40039 36.875C4.18555 37.5391 4.07812 38.2227 4.07812 38.9258C4.07812 39.6289 4.18555 40.3223 4.40039 41.0059C4.63477 41.6699 4.99609 42.2656 5.48438 42.793C5.97266 43.3203 6.58789 43.6035 7.33008 43.6426H16.2363C16.5879 43.623 16.7734 43.4277 16.793 43.0566V41.3574C16.7734 40.9668 16.5879 40.7715 16.2363 40.7715H8.73633C8.18945 40.7715 7.7207 40.5859 7.33008 40.2148C6.95898 39.8242 6.77344 39.3555 6.77344 38.8086C6.77344 38.2617 6.95898 37.793 7.33008 37.4023C7.7207 37.0312 8.18945 36.8457 8.73633 36.8457H18.7559C19.3027 36.8457 19.7715 37.0312 20.1621 37.4023C20.5137 37.7734 20.6992 38.2227 20.7188 38.75V38.8086V45.6641C20.6992 46.1914 20.5137 46.6309 20.1621 46.9824C19.791 47.3535 19.3418 47.5488 18.8145 47.5684H6.33398C4.9668 47.4902 3.83398 46.9727 2.93555 46.0156C2.05664 45.0391 1.42188 43.9355 1.03125 42.7051C0.660156 41.4746 0.474609 40.2148 0.474609 38.9258C0.474609 37.6367 0.669922 36.377 1.06055 35.1465C1.45117 33.916 2.08594 32.8223 2.96484 31.8652C3.84375 30.8887 4.9668 30.3613 6.33398 30.2832ZM30.3574 47.5684C28.6387 47.5098 27.3398 47.1094 26.4609 46.3672C25.582 45.6055 24.9473 44.7559 24.5566 43.8184C24.166 42.8613 23.9707 41.8945 23.9707 40.918C23.9707 39.9023 24.1562 38.9258 24.5273 37.9883C24.918 37.0312 25.5527 36.1816 26.4316 35.4395C27.3301 34.6777 28.4629 34.2871 29.8301 34.2676H40.9629C41.5098 34.2676 41.9688 34.4531 42.3398 34.8242C42.7305 35.1758 42.9258 35.6055 42.9258 36.1133C42.9258 36.6406 42.7305 37.0898 42.3398 37.4609C41.9688 37.8125 41.5098 37.9883 40.9629 37.9883H30.0059C29.5762 37.9883 29.1953 38.1348 28.8633 38.4277C28.5508 38.7207 28.3164 39.1016 28.1602 39.5703C28.0234 40.0391 27.9551 40.498 27.9551 40.9473C27.9551 41.4355 28.0234 41.9141 28.1602 42.3828C28.3164 42.8516 28.5508 43.2324 28.8633 43.5254C29.1953 43.7988 29.5762 43.9453 30.0059 43.9648H40.9629C41.5098 43.9648 41.9688 44.1406 42.3398 44.4922C42.7305 44.8438 42.9258 45.2637 42.9258 45.752C42.9258 46.2598 42.7305 46.6895 42.3398 47.041C41.9688 47.3926 41.5098 47.5684 40.9629 47.5684H30.3574ZM42.5742 40.8594C42.5742 41.2305 42.4082 41.5527 42.0762 41.8262C41.7832 42.0801 41.4121 42.207 40.9629 42.207H31.3828C30.9336 42.207 30.5527 42.0801 30.2402 41.8262C29.9277 41.5527 29.7715 41.2305 29.7715 40.8594C29.7715 40.5078 29.9277 40.1953 30.2402 39.9219C30.5527 39.668 30.9336 39.541 31.3828 39.541H40.9629C41.4121 39.541 41.793 39.6777 42.1055 39.9512C42.418 40.2051 42.5742 40.5078 42.5742 40.8594ZM52.3008 47.5684C50.582 47.5098 49.2832 47.1094 48.4043 46.3672C47.5254 45.6055 46.8906 44.7559 46.5 43.8184C46.1094 42.8613 45.9141 41.8945 45.9141 40.918C45.9141 39.9023 46.0996 38.9258 46.4707 37.9883C46.8613 37.0312 47.4961 36.1816 48.375 35.4395C49.2734 34.6777 50.4062 34.2871 51.7734 34.2676H62.9062C63.4531 34.2676 63.9121 34.4531 64.2832 34.8242C64.6738 35.1758 64.8691 35.6055 64.8691 36.1133C64.8691 36.6406 64.6738 37.0898 64.2832 37.4609C63.9121 37.8125 63.4531 37.9883 62.9062 37.9883H51.9492C51.5195 37.9883 51.1387 38.1348 50.8066 38.4277C50.4941 38.7207 50.2598 39.1016 50.1035 39.5703C49.9668 40.0391 49.8984 40.498 49.8984 40.9473C49.8984 41.4355 49.9668 41.9141 50.1035 42.3828C50.2598 42.8516 50.4941 43.2324 50.8066 43.5254C51.1387 43.7988 51.5195 43.9453 51.9492 43.9648H62.9062C63.4531 43.9648 63.9121 44.1406 64.2832 44.4922C64.6738 44.8438 64.8691 45.2637 64.8691 45.752C64.8691 46.2598 64.6738 46.6895 64.2832 47.041C63.9121 47.3926 63.4531 47.5684 62.9062 47.5684H52.3008ZM64.5176 40.8594C64.5176 41.2305 64.3516 41.5527 64.0195 41.8262C63.7266 42.0801 63.3555 42.207 62.9062 42.207H53.3262C52.877 42.207 52.4961 42.0801 52.1836 41.8262C51.8711 41.5527 51.7148 41.2305 51.7148 40.8594C51.7148 40.5078 51.8711 40.1953 52.1836 39.9219C52.4961 39.668 52.877 39.541 53.3262 39.541H62.9062C63.3555 39.541 63.7363 39.6777 64.0488 39.9512C64.3613 40.2051 64.5176 40.5078 64.5176 40.8594ZM70.2598 29.8145C70.7871 29.834 71.2363 30.0293 71.6074 30.4004C71.9785 30.752 72.1738 31.1914 72.1934 31.7188V46.0742C72.0762 47.2461 71.4316 47.8809 70.2598 47.9785C69.7129 47.9785 69.2344 47.8027 68.8242 47.4512C68.4336 47.0801 68.2383 46.6211 68.2383 46.0742V31.7188C68.2578 31.1719 68.4629 30.7227 68.8535 30.3711C69.2441 30 69.7129 29.8145 70.2598 29.8145ZM73.9805 37.9883C74.5469 37.0703 75.6309 36.3965 77.2324 35.9668L84.7617 33.9453C85.2891 33.7891 85.7871 33.8379 86.2559 34.0918C86.7441 34.3262 87.0664 34.707 87.2227 35.2344C87.3984 35.7422 87.3594 36.2402 87.1055 36.7285C86.8711 37.1973 86.4902 37.5195 85.9629 37.6953L77.9355 39.7754C77.3691 39.9902 77.0957 40.3613 77.1152 40.8887C77.0957 41.416 77.3691 41.7871 77.9355 42.002L85.9629 44.082C86.4902 44.2578 86.8711 44.5898 87.1055 45.0781C87.3594 45.5469 87.3984 46.0352 87.2227 46.543C87.0664 47.0703 86.7441 47.4512 86.2559 47.6855C85.7871 47.9395 85.2891 47.9883 84.7617 47.832L77.2324 45.8105C75.6113 45.3613 74.5176 44.6777 73.9512 43.7598C73.4043 42.8418 73.1309 41.8848 73.1309 40.8887C73.1309 39.8926 73.4141 38.9258 73.9805 37.9883Z" fill="white"/>
</svg>
